<svg width="119" height="19" viewBox="0 0 119 19" fill="none" xmlns="http://www.w3.org/2000/svg">
<path d="M0.25586 18V0.499999H8.00586C9.85586 0.499999 11.3392 1.05 12.4559 2.15C13.5725 3.25 14.1309 4.65833 14.1309 6.375C14.1309 7.175 14.0142 7.90833 13.7809 8.575C13.5642 9.24167 13.2892 9.76667 12.9559 10.15C12.6392 10.5333 12.3142 10.8583 11.9809 11.125C11.6642 11.3917 11.3975 11.575 11.1809 11.675L10.8309 11.825L14.8809 18H9.88086L6.25586 12.25H4.75586V18H0.25586ZM4.75586 8.25H7.73086C8.29753 8.25 8.75586 8.08333 9.10586 7.75C9.45586 7.4 9.63086 6.94167 9.63086 6.375C9.63086 5.80833 9.45586 5.35833 9.10586 5.025C8.77253 4.675 8.32253 4.5 7.75586 4.5H4.75586V8.25ZM16.8818 18V0.499999H29.1318V4.5H21.3818V7.25H28.6318V11H21.3818V14H29.3818V18H16.8818ZM32.0186 18V0.499999H39.1436C41.5936 0.499999 43.5352 1.29167 44.9686 2.875C46.4186 4.44167 47.1436 6.56667 47.1436 9.25C47.1436 11.9333 46.4186 14.0667 44.9686 15.65C43.5352 17.2167 41.5936 18 39.1436 18H32.0186ZM36.5186 14H38.8936C39.9436 14 40.8269 13.575 41.5436 12.725C42.2769 11.8583 42.6436 10.7 42.6436 9.25C42.6436 7.8 42.2769 6.65 41.5436 5.8C40.8269 4.93333 39.9436 4.5 38.8936 4.5H36.5186V14Z" fill="white"/>
<path d="M49.6455 18V0.499999H57.3955C59.2455 0.499999 60.7288 1.05 61.8455 2.15C62.9622 3.25 63.5205 4.65833 63.5205 6.375C63.5205 7.175 63.4038 7.90833 63.1705 8.575C62.9538 9.24167 62.6788 9.76667 62.3455 10.15C62.0288 10.5333 61.7038 10.8583 61.3705 11.125C61.0538 11.3917 60.7872 11.575 60.5705 11.675L60.2205 11.825L64.2705 18H59.2705L55.6455 12.25H54.1455V18H49.6455ZM54.1455 8.25H57.1205C57.6872 8.25 58.1455 8.08333 58.4955 7.75C58.8455 7.4 59.0205 6.94167 59.0205 6.375C59.0205 5.80833 58.8455 5.35833 58.4955 5.025C58.1622 4.675 57.7122 4.5 57.1455 4.5H54.1455V8.25ZM79.9965 15.875C78.4798 17.4583 76.4465 18.25 73.8965 18.25C71.3465 18.25 69.3132 17.4583 67.7965 15.875C66.2798 14.2917 65.5215 12.0833 65.5215 9.25C65.5215 6.41667 66.2798 4.20833 67.7965 2.625C69.3132 1.04167 71.3465 0.249999 73.8965 0.249999C76.4465 0.249999 78.4798 1.04167 79.9965 2.625C81.5132 4.20833 82.2715 6.41667 82.2715 9.25C82.2715 12.0833 81.5132 14.2917 79.9965 15.875ZM71.0215 12.925C71.7048 13.8083 72.6632 14.25 73.8965 14.25C75.1298 14.25 76.0798 13.8083 76.7465 12.925C77.4298 12.0417 77.7715 10.8167 77.7715 9.25C77.7715 7.68333 77.4298 6.45833 76.7465 5.575C76.0798 4.69167 75.1298 4.25 73.8965 4.25C72.6632 4.25 71.7048 4.69167 71.0215 5.575C70.3548 6.45833 70.0215 7.68333 70.0215 9.25C70.0215 10.8167 70.3548 12.0417 71.0215 12.925ZM92.4023 18.25C89.8523 18.25 87.819 17.4583 86.3023 15.875C84.7857 14.2917 84.0273 12.0833 84.0273 9.25C84.0273 6.41667 84.7857 4.20833 86.3023 2.625C87.819 1.04167 89.8523 0.249999 92.4023 0.249999C94.6523 0.249999 96.4273 0.824999 97.7273 1.975C99.0273 3.10833 99.8773 4.61667 100.277 6.5H95.6523C95.4357 6.06667 95.2273 5.71667 95.0273 5.45C94.8273 5.16667 94.494 4.9 94.0273 4.65C93.5607 4.38333 93.019 4.25 92.4023 4.25C91.119 4.25 90.1523 4.68333 89.5023 5.55C88.8523 6.41667 88.5273 7.65 88.5273 9.25C88.5273 10.85 88.8523 12.0833 89.5023 12.95C90.1523 13.8167 91.119 14.25 92.4023 14.25C93.019 14.25 93.5607 14.125 94.0273 13.875C94.494 13.6083 94.8273 13.3417 95.0273 13.075C95.2273 12.7917 95.4357 12.4333 95.6523 12H100.277C99.8773 13.8833 99.0273 15.4 97.7273 16.55C96.4273 17.6833 94.6523 18.25 92.4023 18.25ZM102.648 18V0.499999H107.148V8L112.648 0.499999H117.898L111.523 9.125L118.273 18H113.023L107.148 10.25V18H102.648Z" fill="#18BAFF"/>
</svg>
